<?xml version="1.0" encoding="UTF-8" standalone="no"?>
<svg
   xmlns:dc="http://purl.org/dc/elements/1.1/"
   xmlns:cc="http://creativecommons.org/ns#"
   xmlns:rdf="http://www.w3.org/1999/02/22-rdf-syntax-ns#"
   xmlns:svg="http://www.w3.org/2000/svg"
   xmlns="http://www.w3.org/2000/svg"
   xmlns:sodipodi="http://sodipodi.sourceforge.net/DTD/sodipodi-0.dtd"
   xmlns:inkscape="http://www.inkscape.org/namespaces/inkscape"
   version="1.1"
   id="Calque_1"
   x="0px"
   y="0px"
   viewBox="0 0 118.9944 152"
   xml:space="preserve"
   sodipodi:docname="Logo_Ecole_des_Ponts_ParisTech.svg"
   width="118.9944"
   height="152"
   inkscape:version="1.0.2 (e86c870879, 2021-01-15)"><metadata
   id="metadata61"><rdf:RDF><cc:Work
       rdf:about=""><dc:format>image/svg+xml</dc:format><dc:type
         rdf:resource="http://purl.org/dc/dcmitype/StillImage" /><dc:title></dc:title></cc:Work></rdf:RDF></metadata><defs
   id="defs59" /><sodipodi:namedview
   pagecolor="#ffffff"
   bordercolor="#666666"
   borderopacity="1"
   objecttolerance="10"
   gridtolerance="10"
   guidetolerance="10"
   inkscape:pageopacity="0"
   inkscape:pageshadow="2"
   inkscape:window-width="1858"
   inkscape:window-height="1016"
   id="namedview57"
   showgrid="false"
   inkscape:pagecheckerboard="true"
   borderlayer="false"
   inkscape:zoom="5.7142857"
   inkscape:cx="53.4972"
   inkscape:cy="46.418382"
   inkscape:window-x="0"
   inkscape:window-y="0"
   inkscape:window-maximized="1"
   inkscape:current-layer="Calque_1" />
<style
   type="text/css"
   id="style2">
	.st0{fill:#949494;}
	.st1{fill:#808080;}
	.st2{fill:#1D1D1B;}
	.st3{fill:#0088A9;}
</style>
<g
   id="g54"
   transform="translate(6,6)">
	<path
   class="st0"
   d="m 53.2642,0 m 0,0 L 0,92.2528 h 106.5219 z m 14.7034,70.8474 20.8083,0.0082 0.0148,0.0296 L 78.3784,87.577 Z M 17.8397,70.7635 38.6826,70.7701 28.2607,87.577 Z m 35.5397,15.8316 -21.1258,-36.954 42.2696,0.0131 z m 2.4505,-41.3059 9.401,-15.2165 8.7842,15.2165 z M 53.312,45.2144 42.8921,28.3459 63.7358,28.3517 Z M 50.789,45.286 32.5134,45.2836 41.3461,29.989 Z M 38.0593,68.584 H 19.0617 l 9.5432,-16.5285 z m 2.1775,3.8176 8.6814,15.1753 H 30.8565 Z m 26.2111,0.1431 9.2875,15.0323 H 57.8438 Z m 2.2187,-3.8769 9.3812,-16.3936 9.4684,16.3822 z M 53.2642,9.3434 62.976,26.1564 43.5508,26.1667 Z M 16.5807,72.8802 25.6593,87.5769 H 8.0959 Z M 81.0345,87.577 90.0292,73.0283 98.4285,87.577 Z"
   id="path4" />
	<g
   id="g24">
		<path
   class="st1"
   d="m 19.3372,128.882 c 0.6192,-0.0337 2.0912,-0.0509 2.9818,0.0173 1.6373,0.1209 2.3412,1.0509 2.3412,2.2219 0,1.5328 -1.2023,2.6191 -3.2729,2.791 -0.7056,0.0518 -1.5329,0.0518 -2.0501,0 z m 0,5.7087 c 0.5172,0 1.8634,0.1209 2.7959,-0.037 2.9185,-0.4844 4.425,-1.4317 4.425,-3.518 0,-2.083 -1.3207,-2.8272 -5.337,-2.8272 h -3.6948 v 11.789 c 0.2862,-0.0181 0.5962,-0.0419 0.9054,-0.0419 0.2887,0 0.5773,0.0239 0.9054,0.0419 v -5.4068 z"
   id="path6" />
		<path
   class="st1"
   d="m 32.2791,135.9245 c 0,0.4852 0.0255,0.782 -0.0444,1.2656 -0.1538,1.074 -1,2.2639 -2.4037,2.3371 -1.1825,0.0732 -1.7376,-0.8536 -1.6488,-1.708 0.1998,-1.9144 0.935,-1.671 3.2071,-2.3774 l 0.8898,-0.2779 z m 0,-1.1677 v 0 c -0.7557,0.296 -1.0674,0.3898 -2.4481,0.685 -1.6257,0.3528 -3.2983,0.5584 -3.388,2.4144 -0.0444,1.1669 1.1817,2.0608 2.5624,2.1356 1.361,0.074 2.7178,-0.5206 3.1643,-1.6513 v 1.4276 h 2.717 v -0.3141 h -0.9342 v -5.1815 c 0,-1.3733 -0.2467,-2.6553 -3.1874,-2.7836 -0.8001,-0.037 -1.0032,0.0345 -1.5805,0.111 -0.6702,0.0921 -1.2911,0.2985 -1.7384,0.463 v 2.4892 h 0.4021 l 0.4893,-1.041 c 0.4227,-0.8889 0.8026,-1.856 2.2482,-1.7253 1.4506,0.1291 1.6932,0.9276 1.6932,1.7845 v 1.1865 z"
   id="path8" />
		<path
   class="st1"
   d="m 39.9737,139.9975 h -4.0278 v -0.3149 h 0.9991 v -7.4273 h -1.0452 v -0.3339 h 2.6052 v 1.6907 c 0.1127,-0.6143 1.0468,-1.7483 2.518,-1.7483 0.426,0 0.8042,0.0937 1.2269,0.2804 v 2.9349 h -0.4227 l -0.5353,-1.3569 c -0.3791,-0.9481 -0.6669,-1.5599 -1.2483,-1.2795 -1.5139,0.7253 -1.3799,2.4695 -1.3799,4.101 v 3.1389 h 1.31 z"
   id="path10" />
		<path
   class="st1"
   d="m 43.3724,139.9975 v -0.3149 h 1.0279 v -7.4273 H 43.439 v -0.3339 h 2.6956 v 7.7612 h 0.9152 v 0.3149 z m 2.8066,-9.9502 c 0,0.5181 -0.5115,0.889 -1.0904,0.889 -0.5583,0 -1.0699,-0.4079 -1.0699,-0.8725 0,-0.4638 0.4909,-0.9103 1.0477,-0.9103 0.6011,-1e-4 1.1126,0.4103 1.1126,0.8938"
   id="path12" />
		<path
   class="st1"
   d="m 53.6968,133.5726 c -0.4227,-1.2615 -0.8454,-1.7623 -2.0032,-1.7623 -1.0032,0 -2.2746,0.3322 -2.3642,1.3527 -0.0642,0.9095 1.069,1.2812 2.0961,1.5608 1.7384,0.5 3.7655,1.0222 3.6972,2.6364 -0.0461,1.5427 -1.5814,2.6734 -3.6775,2.6356 -1.2014,-0.0164 -2.5616,-0.4095 -3.0295,-0.6817 v -2.6578 h 0.4013 l 0.4679,1.3346 c 0.5123,1.5041 1.0929,1.5221 2.0073,1.5954 1.2697,0.1135 2.7162,-0.4071 2.8305,-1.4457 0.1538,-1.2812 -1.8963,-1.6167 -3.189,-2.0057 -0.9136,-0.2796 -2.6931,-0.7804 -2.6931,-2.3017 0,-1.7836 2.3157,-2.3765 3.5418,-2.3765 1.0246,0 2.2063,0.3322 2.629,0.5575 v 2.43 h -0.4227 z"
   id="path14" />
		<path
   class="st2"
   d="m 60.5559,140 c -0.329,-0.0205 -0.6184,-0.0272 -0.9054,-0.0272 -0.3117,0 -0.6168,0.007 -0.9038,0.0272 v -11.0061 c -2.092,0 -3.3527,0.1028 -4.5319,0.208 0.0205,-0.1743 0.0724,-0.3429 0.0724,-0.5148 0,-0.1711 -0.0518,-0.324 -0.0724,-0.5123 H 64.883 c -0.0247,0.1883 -0.0526,0.3412 -0.0526,0.5123 0,0.1719 0.028,0.3405 0.0526,0.5123 -1.0386,-0.1028 -2.4851,-0.2056 -4.3271,-0.2056 z"
   id="path16" />
		<path
   class="st2"
   d="m 65.4488,133.5734 c 0.1546,-0.8914 0.8684,-1.745 1.8486,-1.782 1.1809,-0.0559 1.6249,0.9827 1.6496,1.9119 l 0.0198,0.8749 h -3.6972 z m 5.4093,3.1932 H 70.442 l -0.0247,0.2237 c -0.1135,1.1159 -1.0263,2.7096 -2.763,2.6175 -1.9621,-0.0929 -2.3847,-1.7993 -2.3847,-3.7293 v -0.949 H 70.84 c 0.2039,-1.7063 -1.2269,-3.5105 -3.4522,-3.4916 -2.2959,0.0378 -3.8551,1.9514 -3.9891,4.2169 -0.1357,2.4687 1.7146,4.3797 4.1224,4.3427 1.893,-0.0362 3.1857,-1.43 3.3189,-2.9694 z"
   id="path18" />
		<path
   class="st2"
   d="m 78.6933,134.7815 -0.2253,-0.6718 c -0.4884,-1.6093 -1.069,-2.3371 -2.092,-2.3552 -2.1627,-0.037 -2.5213,2.3026 -2.4752,4.0665 0.0427,1.6324 0.222,3.7326 2.4966,3.7499 1.3371,0.0181 2.1611,-1.0411 2.3847,-2.171 l 0.1102,-0.5954 h 0.4013 l -0.0642,0.4087 c -0.3372,2.1348 -1.7433,2.8033 -3.3025,2.7844 -2.5164,-0.0181 -3.9406,-2.2088 -3.9406,-4.2901 0,-2.1693 1.671,-4.1947 4.2778,-4.2885 0.6661,-0.0173 1.8273,0.0395 2.8519,0.5386 v 2.8239 z"
   id="path20" />
		<path
   class="st2"
   d="m 85.1865,140 v -0.3166 h 1.1776 v -5.3262 c 0,-1.0608 0.0247,-2.1175 -1.2713,-2.0797 -1.8683,0.0551 -2.1134,2.2442 -2.1134,3.8765 v 3.5294 h 1.2697 V 140 h -3.8995 v -0.3166 h 0.9358 v -10.308 h -1.0016 v -0.3314 h 2.6956 v 4.2145 c 0.2697,-0.7031 1.4029,-1.5591 2.6052,-1.4654 1.8042,0.1299 2.4292,0.7623 2.4292,2.4695 v 5.4208 h 0.9818 V 140 Z"
   id="path22" />
	</g>
	<g
   id="g52">
		<path
   class="st3"
   d="m 0.0403,115.9533 v -11.5176 h 6.2623 v 1.8593 h -4.044 v 2.8329 h 3.8393 v 1.8083 H 2.2585 v 3.1232 h 4.044 v 1.8938 H 0.0403 Z m 2.3377,-12.2684 -0.7508,-1.2458 2.9861,-1.8774 0.9044,1.5016 z"
   id="path26" />
		<path
   class="st3"
   d="m 11.5723,116.1071 c -2.3547,0 -3.8222,-1.2286 -3.8222,-4.1125 0,-2.6447 1.3821,-4.6758 4.3853,-4.6758 0.5802,0 1.1945,0.0855 1.7405,0.2393 l -0.2218,1.8938 c -0.4607,-0.1702 -0.9897,-0.3067 -1.5357,-0.3067 -1.3821,0 -2.0817,1.0238 -2.0817,2.6273 0,1.4506 0.5631,2.4399 2.0135,2.4399 0.5801,0 1.2115,-0.1193 1.6722,-0.3577 l 0.1707,1.8593 c -0.5803,0.222 -1.4164,0.3931 -2.3208,0.3931 z"
   id="path28" />
		<path
   class="st3"
   d="m 18.7013,116.1235 c -2.406,0 -3.9587,-1.245 -3.9587,-4.2654 0,-2.6446 1.7575,-4.5558 4.3341,-4.5558 2.4059,0 3.9587,1.3306 3.9587,4.2482 0,2.6619 -1.7916,4.573 -4.3341,4.573 z m 0.2218,-6.9783 c -0.9726,0 -1.9282,0.7508 -1.9282,2.4908 0,1.7409 0.6313,2.6282 1.8941,2.6282 1.075,0 1.894,-0.8709 1.894,-2.5937 10e-5,-1.638 -0.5801,-2.5253 -1.8599,-2.5253 z"
   id="path30" />
		<path
   class="st3"
   d="m 24.7922,115.9533 v -12.4567 h 2.1841 v 12.4567 z"
   id="path32" />
		<path
   class="st3"
   d="m 36.207,112.0628 h -5.2555 c -0.0171,1.5871 0.7678,2.3543 2.3377,2.3543 0.8361,0 1.7405,-0.1875 2.4742,-0.5288 l 0.2047,1.6891 c -0.9043,0.3586 -1.9794,0.546 -3.0373,0.546 -2.6961,0 -4.1976,-1.3478 -4.1976,-4.3337 0,-2.5936 1.4333,-4.5047 3.9758,-4.5047 2.4742,0 3.5663,1.6891 3.5663,3.7877 -1e-4,0.2903 -0.0171,0.6316 -0.0683,0.9901 z m -3.5663,-3.1742 c -0.9044,0 -1.5357,0.6661 -1.6552,1.6899 h 3.1226 c 0.0342,-1.0583 -0.5459,-1.6899 -1.4674,-1.6899 z"
   id="path34" />
		<path
   class="st3"
   d="m 45.5736,115.9533 c 0,-0.4095 0.0341,-0.9555 0.1024,-1.4161 h -0.0341 c -0.4436,0.9383 -1.3821,1.6036 -2.679,1.6036 -2.0647,0 -3.0885,-1.5526 -3.0885,-3.976 0,-2.8667 1.6722,-4.846 4.4877,-4.846 0.3583,0 0.6996,0.0173 1.075,0.0682 v -3.8904 h 2.167 v 12.4567 z m -0.1365,-6.7744 c -0.3925,-0.0856 -0.7679,-0.1365 -1.1433,-0.1365 -1.2456,0 -2.1329,0.7853 -2.1329,2.8839 0,1.5871 0.4607,2.4061 1.4504,2.4061 1.1433,0 1.8258,-1.3314 1.8258,-2.782 z"
   id="path36" />
		<path
   class="st3"
   d="m 56.8517,112.0628 h -5.2555 c -0.0171,1.5871 0.7678,2.3543 2.3379,2.3543 0.8359,0 1.7401,-0.1875 2.474,-0.5288 l 0.2048,1.6891 c -0.9041,0.3586 -1.9794,0.546 -3.0373,0.546 -2.6961,0 -4.1976,-1.3478 -4.1976,-4.3337 0,-2.5936 1.4333,-4.5047 3.9756,-4.5047 2.4744,0 3.5665,1.6891 3.5665,3.7877 -2e-4,0.2903 -0.0174,0.6316 -0.0684,0.9901 z m -3.5665,-3.1742 c -0.9042,0 -1.5355,0.6661 -1.655,1.6899 h 3.1228 c 0.0338,-1.0583 -0.5459,-1.6899 -1.4678,-1.6899 z"
   id="path38" />
		<path
   class="st3"
   d="m 60.2126,116.1235 c -0.6143,0 -1.2285,-0.0683 -1.7746,-0.153 l 0.051,-1.7918 c 0.5287,0.1365 1.1776,0.2557 1.8256,0.2557 0.8363,0 1.3824,-0.3413 1.3824,-0.9046 0,-1.5016 -3.43,-0.648 -3.43,-3.5319 0,-1.4843 1.2117,-2.7129 3.6006,-2.7129 0.4946,0 1.0407,0.0682 1.553,0.1538 l -0.0683,1.7228 c -0.4778,-0.1365 -1.0411,-0.2212 -1.5699,-0.2212 -0.8536,0 -1.2631,0.3412 -1.2631,0.87 0,1.3823 3.481,0.7681 3.481,3.5146 -10e-5,1.6727 -1.4671,2.7985 -3.7877,2.7985 z"
   id="path40" />
		<path
   class="st3"
   d="m 71.2002,111.9263 c -0.2047,0 -0.4778,0 -0.7508,-0.0346 v 4.0615 h -2.2183 v -11.5176 c 0.9383,-0.0518 1.9621,-0.0682 3.0887,-0.0682 2.8321,0 4.3851,1.3133 4.3851,3.5657 0,2.2359 -1.7063,3.9932 -4.5047,3.9932 z m 0.0341,-5.7505 c -0.273,0 -0.5288,0 -0.7849,0.0173 v 3.8395 c 0.2216,0.0337 0.4436,0.051 0.6484,0.051 1.3651,-0.0173 2.3034,-0.7681 2.3034,-2.0139 -1e-4,-1.1605 -0.6653,-1.8939 -2.1669,-1.8939 z"
   id="path42" />
		<path
   class="st3"
   d="m 79.595,116.1235 c -2.4062,0 -3.9587,-1.245 -3.9587,-4.2654 0,-2.6446 1.7574,-4.5558 4.3337,-4.5558 2.4062,0 3.9587,1.3306 3.9587,4.2482 0,2.6619 -1.7915,4.573 -4.3337,4.573 z m 0.2216,-6.9783 c -0.9724,0 -1.928,0.7508 -1.928,2.4908 0,1.7409 0.6312,2.6282 1.8939,2.6282 1.0748,0 1.8938,-0.8709 1.8938,-2.5937 0,-1.638 -0.5797,-2.5253 -1.8597,-2.5253 z"
   id="path44" />
		<path
   class="st3"
   d="m 90.8898,115.9533 v -5.4266 c 0,-0.8873 -0.2389,-1.416 -1.0411,-1.416 -1.1089,0 -1.9794,1.2631 -1.9794,2.7474 v 4.0952 h -2.1841 v -8.4807 h 2.0649 c 0,0.3923 -0.0341,1.0584 -0.1192,1.5016 l 0.0169,0.0173 c 0.5119,-1.0066 1.5016,-1.7064 2.8835,-1.7064 1.9111,0 2.5254,1.2286 2.5254,2.7129 v 5.9553 z"
   id="path46" />
		<path
   class="st3"
   d="m 98.19,116.1235 c -1.877,0 -2.4571,-0.6825 -2.4571,-2.6619 v -4.2999 h -1.4675 v -1.6891 h 1.4506 v -2.6109 l 2.1841,-0.5798 v 3.1907 h 2.0645 v 1.6891 h -2.0645 v 3.7202 c 0,1.092 0.2558,1.3988 1.0066,1.3988 0.3585,0 0.7508,-0.051 1.0579,-0.1365 v 1.7582 c -0.546,0.1364 -1.1771,0.2211 -1.7746,0.2211 z"
   id="path48" />
		<path
   class="st3"
   d="m 103.2067,116.1235 c -0.6143,0 -1.2286,-0.0683 -1.7746,-0.153 l 0.051,-1.7918 c 0.5288,0.1365 1.1776,0.2557 1.8256,0.2557 0.8363,0 1.3824,-0.3413 1.3824,-0.9046 0,-1.5016 -3.43,-0.648 -3.43,-3.5319 0,-1.4843 1.2117,-2.7129 3.6006,-2.7129 0.4946,0 1.0407,0.0682 1.553,0.1538 l -0.0683,1.7228 c -0.4778,-0.1365 -1.0411,-0.2212 -1.5698,-0.2212 -0.8536,0 -1.2631,0.3412 -1.2631,0.87 0,1.3823 3.481,0.7681 3.481,3.5146 -1e-4,1.6727 -1.4672,2.7985 -3.7878,2.7985 z"
   id="path50" />
	</g>
</g>
</svg>
