<svg xmlns="http://www.w3.org/2000/svg" id="Calque_1" data-name="Calque 1" viewBox="0 0 71.57 62.05"><defs><style>.cls-1{fill:#077bc0;}.cls-2{fill:#0d7cc0;}</style></defs><polygon class="cls-2" points="9.23 62.05 13.12 62.05 35.78 53.12 58.43 62.05 62.33 62.05 35.78 51.58 9.23 62.05"/><path class="cls-2" d="M55.45,55.69l-.09-9.59a.46.46,0,0,0,.23-.38.44.44,0,0,0-.2-.37.34.34,0,0,1,.28-.13V44.8s-.31,0-.37-.64h1V42.87H57l.68-2.14h-.53l.53-1.29H51.1V34.87l.71-1.34V32.29l.48-.74v-.62H51l-.24-.4c0-10.77-8.93-15.12-10-15.59L40.14,14l.23-.47h.37l.37-.77-.52-.47-.15-.42H39.09l.32-1.17h-.68l-.1-.14,0-2.83a.28.28,0,0,0,.07-.17.28.28,0,0,0-.12-.23v-.1h.08L39,6.44h-.5l.91-1.93h-.66a3.46,3.46,0,0,0-1.87-2.86v0h.06L36.54.8A.85.85,0,0,0,36,0l-.08,0h-.39l-.08,0a.87.87,0,0,0-.52.8l-.39.8h.07v0a3.48,3.48,0,0,0-1.87,2.86h-.62L33,6.44h-.49l.37.78H33v.14a.24.24,0,0,0-.07.18.28.28,0,0,0,.06.18l0,2.82-.1.15h-.74l.3,1.17H31.16l-.16.42-.59.47.37.77h.37l.23.47-.59.93c-.87.39-10,4.72-10,15.61l-.26.4H19.39l0,.62.54.75,0,1.23.55,1.34v4.57H13.89l.53,1.29h-.53l.7,2.14h.65l0,1.29h1c-.06.59-.36.63-.37.63v.42a.36.36,0,0,1,.32.18.44.44,0,0,0-.13.32.44.44,0,0,0,.23.38l-.09,9.59L0,62.05H3.89L35.78,49.47,67.67,62.05h3.9ZM36.33,3.28c.32,0,1.1,1,1.14,1.77v.09h-1V5.06A6.51,6.51,0,0,0,36.3,3.6c0-.08,0-.16,0-.23l0-.1Zm1,3.42v.08l0,3.88h-.65v-.08l0-3.88ZM34,5.05c0-.71.78-1.77,1.14-1.77h.1l0,.1c0,.06,0,.14,0,.21A6.7,6.7,0,0,0,35,5.06v.08H34Zm.89,1.65v.08l0,3.88h-.64v-.08l0-3.88Zm3.3,5.52-.15,1H33.52l-.15-1ZM32.45,14H39.1l.56,1H31.9ZM22.62,30c.11-9.5,8.51-13.25,8.87-13.4H33s-1,.45-1.27.63-8.11,4.41-7.89,12.09H28A16.83,16.83,0,0,1,33,17l.49-.41h.77l-.43.61a17.77,17.77,0,0,0-4.77,12.1h3.48c0-6.29,1.29-10.75,2-12.24l.21-.47h.93l-.15.57A41.57,41.57,0,0,0,33.67,29.3H37.9a41.57,41.57,0,0,0-1.84-12.14l-.16-.57h.94l.21.47A33.92,33.92,0,0,1,39,29.3H42.5a17.77,17.77,0,0,0-4.77-12.1l-.43-.61h.76l.5.41a16.83,16.83,0,0,1,5,12.3h4.15c.22-7.68-7.58-11.92-7.89-12.09s-1.27-.63-1.27-.63h1.5c.36.15,8.76,3.9,8.87,13.4v.34H22.61Zm-1.17,1.9h28.8v1H21.45Zm27.6,3.33v4.23h-.86V35.21c0-.2.11-.93.43-.93S49.05,35,49.05,35.21Zm-3.37,0v4.23H44.25V35.22s0-.94.66-.94S45.68,35.12,45.68,35.21Zm-3.94,0v4.23H39.58V35.22a.91.91,0,0,1,1-.94C41.64,34.28,41.74,35,41.74,35.21Zm-4.91,0v4.23h-2.1V35.22a1.06,1.06,0,0,1,2.1,0Zm-4.89,0v4.22h-2.1V35.22a1.06,1.06,0,0,1,2.1,0Zm-4.62,0v4.22H25.89V35.22c0-.1,0-.94.71-.94S27.31,35.11,27.32,35.22Zm-3.95,0v4.22h-.86V35.21c0-.2.1-.93.43-.93S23.37,35,23.37,35.22ZM20.82,53.84l-2.42.95-.06-8.7a.48.48,0,0,0,.2-.38.45.45,0,0,0-.18-.37.3.3,0,0,1,.25-.13v-.42s-.27,0-.33-.63h2.54c-.06.59-.32.63-.33.63v.42a.31.31,0,0,1,.28.18.48.48,0,0,0-.11.32.43.43,0,0,0,.2.38ZM25.45,52,23,53,23,46.09a.46.46,0,0,0,.21-.38.47.47,0,0,0-.18-.37.3.3,0,0,1,.25-.13v-.42s-.28,0-.33-.63h2.53c-.05.59-.31.63-.32.63v.42a.31.31,0,0,1,.28.18.48.48,0,0,0-.12.32.44.44,0,0,0,.21.38Zm4.65-1.83-2.47,1,0-5.06a.46.46,0,0,0,.2-.38.45.45,0,0,0-.18-.37.32.32,0,0,1,.26-.13v-.42s-.28,0-.33-.63h2.53c0,.59-.31.63-.32.63v.42a.3.3,0,0,1,.28.18.48.48,0,0,0-.11.32.44.44,0,0,0,.21.38Zm4.63-1.83-2.47,1,0-3.21a.47.47,0,0,0,0-.75.3.3,0,0,1,.25-.13v-.42s-.27-.07-.33-.66h2.54c-.06.59-.32.66-.33.66v.42a.32.32,0,0,1,.28.18.48.48,0,0,0-.11.32.43.43,0,0,0,.2.38Zm4.62,1-2.46-1,0-2.28a.46.46,0,0,0,.21-.38.47.47,0,0,0-.18-.37.3.3,0,0,1,.25-.13v-.42s-.28,0-.33-.63h2.53c0,.59-.31.63-.32.63v.42a.31.31,0,0,1,.28.18.48.48,0,0,0-.12.32.44.44,0,0,0,.21.38ZM44,51.17l-2.47-1,0-4.1a.46.46,0,0,0,.2-.38.45.45,0,0,0-.18-.37.31.31,0,0,1,.25-.13l0-.42s-.28,0-.33-.63H44c-.05.59-.31.63-.32.63v.42a.3.3,0,0,1,.28.18.48.48,0,0,0-.11.32.44.44,0,0,0,.21.38ZM48.58,53l-2.42-1-.06-5.94a.48.48,0,0,0,.2-.38.45.45,0,0,0-.18-.37.3.3,0,0,1,.25-.13v-.42s-.28,0-.33-.63h2.54c-.06.59-.32.63-.33.63v.42a.31.31,0,0,1,.28.18.48.48,0,0,0-.11.32.43.43,0,0,0,.2.38Zm4.62,1.82-2.42-1-.06-7.76a.46.46,0,0,0,.21-.38.47.47,0,0,0-.18-.37.3.3,0,0,1,.25-.13v-.42s-.28,0-.33-.63h2.53c-.05.59-.31.63-.32.63v.42a.31.31,0,0,1,.29.18.48.48,0,0,0-.12.32.44.44,0,0,0,.21.38ZM54.83,42.1H16.73l-.28-1H55.11Z"/></svg>